<svg width="1920" height="894" viewBox="0 0 1920 894" fill="none" xmlns="http://www.w3.org/2000/svg">
<g opacity="0.5" filter="url(#filter0_f_1_25)">
<path d="M745.876 161.113C953.203 166.557 1057.49 1.66192 1261.77 36.9588C1402.12 61.2101 1473.62 135.157 1613.65 161.113C1758.05 187.877 1964.5 161.113 1964.5 161.113V312.346L-30.0363 294.975V127.903C-30.0363 127.903 174.379 53.5192 310.95 51.2646C486.276 48.3703 570.588 156.511 745.876 161.113Z" fill="#019AA4"/>
<path d="M1963.46 288.593V481.722H-30.0363V288.593C-30.0363 288.593 305.893 153.305 531.008 157.797C738.419 161.935 838.39 274.405 1045.34 288.593C1288.34 305.251 1421.48 164.081 1662.44 199.181C1783.91 216.875 1963.46 288.593 1963.46 288.593Z" fill="#027D85"/>
<path d="M744.838 399.203C952.165 404.647 1056.45 239.752 1260.73 275.049C1401.08 299.3 1472.58 373.247 1612.61 399.203C1757.01 425.967 1963.46 399.203 1963.46 399.203V550.437L-31.0743 533.065V365.993C-31.0743 365.993 173.341 291.609 309.912 289.355C485.238 286.461 569.55 394.601 744.838 399.203Z" fill="#005E64"/>
<path d="M1962.42 526.683V719.812H-31.0743V526.683C-31.0743 526.683 304.855 391.395 529.97 395.887C737.381 400.025 837.352 512.496 1044.3 526.683C1287.3 543.342 1420.44 402.171 1661.4 437.272C1782.87 454.965 1962.42 526.683 1962.42 526.683Z" fill="#004044"/>
<path d="M745.876 690.43C953.203 695.873 1057.49 530.978 1261.77 566.275C1402.12 590.527 1473.62 664.473 1613.65 690.43C1758.05 717.193 1964.5 690.43 1964.5 690.43V841.663L-30.0363 824.292V657.22C-30.0363 657.22 174.379 582.836 310.95 580.581C486.276 577.687 570.588 685.827 745.876 690.43Z" fill="#012C2F"/>
<path d="M1963.46 817.909V1011.04H-30.0363V817.909C-30.0363 817.909 305.893 682.622 531.008 687.113C738.419 691.251 838.39 803.722 1045.34 817.909C1288.34 834.568 1421.48 693.398 1662.44 728.498C1783.91 746.192 1963.46 817.909 1963.46 817.909Z" fill="#001C1E"/>
</g>
<defs>
<filter id="filter0_f_1_25" x="-63.0743" y="0" width="2059.57" height="1043.04" filterUnits="userSpaceOnUse" color-interpolation-filters="sRGB">
<feFlood flood-opacity="0" result="BackgroundImageFix"/>
<feBlend mode="normal" in="SourceGraphic" in2="BackgroundImageFix" result="shape"/>
<feGaussianBlur stdDeviation="16" result="effect1_foregroundBlur_1_25"/>
</filter>
</defs>
</svg>
